<svg xmlns="http://www.w3.org/2000/svg" viewBox="0 0 202.84 190.62"><defs><style>.cls-1{isolation:isolate;}.cls-2,.cls-8,.cls-9{fill:#ce8d76;}.cls-3{fill:#999;}.cls-4{fill:#47260b;}.cls-5{fill:#ff7373;}.cls-6{fill:#666;}.cls-11,.cls-12,.cls-14,.cls-17,.cls-6,.cls-8,.cls-9{fill-rule:evenodd;}.cls-7{fill:#b2b2b2;}.cls-16,.cls-9{mix-blend-mode:multiply;}.cls-10,.cls-11{fill:#6e471a;}.cls-12{fill:#062a3f;}.cls-13{fill:#683100;}.cls-14,.cls-15{fill:#92e2ef;}.cls-16,.cls-18{fill:#85d7e0;}.cls-16{opacity:0.65;}.cls-17{fill:#b3b3b3;}.cls-19{fill:#a3a3a3;}.cls-20{fill:#ddbe8c;}.cls-21{fill:#9fe2ba;}</style></defs><g class="cls-1"><g id="OBJECTS"><path class="cls-2" d="M85.63,353.34l.2.67.27.84q.27.86.6,1.71c.43,1.13.92,2.22,1.43,3.27A20.64,20.64,0,0,0,91.58,365a8.59,8.59,0,0,0,1.7,1.43,4.37,4.37,0,0,0,1.53.62,5.71,5.71,0,0,0,.86.08H96l.49,0,1-.05c1.33-.08,2.69-.2,4.06-.35,5.5-.58,11.24-1.5,17.09-2.4,2.93-.45,5.9-.9,8.94-1.29s6.13-.73,9.45-.84a35.48,35.48,0,0,1,5.27.21,16.26,16.26,0,0,1,6.31,1.93,11.32,11.32,0,0,1,1.73,1.24c.27.25.55.5.81.79l.38.44.4.54a11.77,11.77,0,0,1,1,1.61c.23.47.42.89.59,1.31.68,1.64,1.16,3.13,1.63,4.62,1.78,5.93,3.18,11.67,4.55,17.46,2.75,11.56,5.23,23.08,7.94,34.62L157.23,429c-1.95-11.52-4.42-23-7.2-34.34-1.44-5.63-2.92-11.31-4.74-16.59-.46-1.29-.94-2.59-1.43-3.65a5.56,5.56,0,0,0-.34-.69,2.58,2.58,0,0,0-.17-.29.36.36,0,0,0,.07.1s0,0,0,0,0,0,0,0,0,0-.09,0a7.28,7.28,0,0,0-2.14-.39,21.68,21.68,0,0,0-3.54.12c-5.16.54-10.8,2.06-16.42,3.54s-11.44,3.12-17.57,4.29c-1.54.28-3.1.54-4.7.76l-1.21.16-.61.07-.32,0-.44,0a22.23,22.23,0,0,1-3.55-.07A19.81,19.81,0,0,1,86,380.07a23.43,23.43,0,0,1-5.36-3.81,34.48,34.48,0,0,1-6.74-9.15,44.25,44.25,0,0,1-2.17-4.78c-.31-.81-.61-1.62-.88-2.45-.14-.42-.27-.83-.4-1.27L70.3,358l-.21-.79Z" transform="translate(-48.04 -246.76)"/><path class="cls-3" d="M93.35,384.5a6.68,6.68,0,1,1-6.68-6.68A6.68,6.68,0,0,1,93.35,384.5Z" transform="translate(-48.04 -246.76)"/><rect class="cls-3" x="37.08" y="144.74" width="3.11" height="45.21"/><path class="cls-3" d="M105.23,436.72c-1.62-3.47-9.31-6.1-18.56-6.1s-16.94,2.63-18.55,6.1Z" transform="translate(-48.04 -246.76)"/><path class="cls-2" d="M83.68,353.82l.23.79.3.91c.2.61.42,1.23.66,1.84a37.37,37.37,0,0,0,1.56,3.53,21.45,21.45,0,0,0,4,5.7A7.55,7.55,0,0,0,94.88,369a3.08,3.08,0,0,0,.61,0,6.08,6.08,0,0,0,.75,0c.68,0,1.38-.08,2.08-.13,1.39-.11,2.81-.27,4.24-.44,5.73-.7,11.6-1.75,17.58-2.75,3-.5,6-1,9.11-1.4a75.71,75.71,0,0,1,9.62-.73,26.11,26.11,0,0,1,5.39.54,14,14,0,0,1,3,1,9.52,9.52,0,0,1,3,2.31l.19.22c.1.12.19.25.29.38a6.37,6.37,0,0,1,.42.73,7.09,7.09,0,0,1,.46,1.23,10,10,0,0,1,.3,1.87,17.78,17.78,0,0,1-.08,2.88,43.79,43.79,0,0,1-.8,4.89A184.62,184.62,0,0,1,146,397.41c-1.91,5.77-3.94,11.48-6,17.17s-4.31,11.38-6.58,17l-7.26-3.13c1.21-2.7,2.41-5.45,3.54-8.2s2.22-5.49,3.3-8.29c2.13-5.59,4.14-11.22,6-16.87q1.38-4.25,2.58-8.51c.8-2.83,1.52-5.68,2.05-8.47a36.5,36.5,0,0,0,.56-4,11.16,11.16,0,0,0,0-1.63,2.45,2.45,0,0,0-.06-.35,1.07,1.07,0,0,0,.06.17c0,.09.07.12.14.25l.12.15s0,0,0,0a3.88,3.88,0,0,0-1.82-.69,16.34,16.34,0,0,0-3.59-.17,53.64,53.64,0,0,0-8.3,1.18c-2.85.59-5.72,1.28-8.62,2-5.81,1.45-11.68,3-17.84,4.18-1.55.29-3.11.55-4.7.77-.8.1-1.6.21-2.41.29-.35.05-1,.07-1.51.09a12.86,12.86,0,0,1-1.64,0,17.91,17.91,0,0,1-6.39-1.65,21.43,21.43,0,0,1-5.17-3.46,32,32,0,0,1-6.61-8.81,41.06,41.06,0,0,1-2.14-4.69c-.31-.79-.6-1.59-.87-2.41q-.21-.6-.39-1.23c-.13-.45-.23-.8-.38-1.39Z" transform="translate(-48.04 -246.76)"/><path class="cls-4" d="M88.05,352.74l.38,1.2c.16.48.33,1,.51,1.45.35,1,.77,1.92,1.19,2.82a21.23,21.23,0,0,0,2.69,4.47,8.08,8.08,0,0,0,2,1.85,1.81,1.81,0,0,0,.67.23,6.52,6.52,0,0,0,1.32,0l1.78-.08c4.81-.33,10-1,15.3-1.72s10.76-1.52,16.54-2.1a69.91,69.91,0,0,1,9.24-.38,28.35,28.35,0,0,1,5.55.73,16.77,16.77,0,0,1,3.34,1.2,13,13,0,0,1,3.6,2.6l.41.46.21.24a6.41,6.41,0,0,1,.39.52c.13.17.26.37.36.53l.26.47.23.48.17.41a10.8,10.8,0,0,1,.66,2.6,17.21,17.21,0,0,1,.06,3.32,36.94,36.94,0,0,1-.72,4.88c-.63,3-1.37,5.71-2.15,8.42-3.17,10.76-6.87,21-10.2,31.38l-13-4.9c2.14-4.89,4.09-9.87,5.85-14.88s3.4-10.06,4.68-15.08a66.57,66.57,0,0,0,1.57-7.33,22.18,22.18,0,0,0,.3-3.15,2.05,2.05,0,0,0-.06-.72,1.84,1.84,0,0,0,.17.65l.07.17.12.25a2,2,0,0,0,.14.25,2.49,2.49,0,0,0,.21.32l.24.32,0,.05.07.09c.43.45.39.3-.21.23a13.08,13.08,0,0,0-2.48-.08,45,45,0,0,0-6.88,1c-4.89,1.06-10,2.62-15.24,4.09A150.69,150.69,0,0,1,100.88,384l-2.25.35a25.31,25.31,0,0,1-2.72.27,22.23,22.23,0,0,1-7.3-.89,23.32,23.32,0,0,1-6.4-3.09,28.57,28.57,0,0,1-4.8-4.15,39.16,39.16,0,0,1-6.13-9,48.93,48.93,0,0,1-2-4.62c-.3-.78-.58-1.56-.84-2.36l-.38-1.23-.18-.65-.21-.81Z" transform="translate(-48.04 -246.76)"/><path class="cls-5" d="M52.67,311.76h-.23A4.49,4.49,0,0,1,48.18,307c0-1.06.1-1.64.1-1.64a4.5,4.5,0,0,1,9,.75h0s0,.51-.09,1.35A4.5,4.5,0,0,1,52.67,311.76Z" transform="translate(-48.04 -246.76)"/><path class="cls-5" d="M102.86,390.7h-.23c-1.08-.05-2.15-.13-3.18-.23a4.52,4.52,0,0,1-3.28-1.94,4.46,4.46,0,0,1-3.73.82c-1.06-.24-2.12-.51-3.14-.81A4.5,4.5,0,0,1,86.41,386a4.55,4.55,0,0,1-3.87.06c-1-.46-2-1-2.93-1.47a4.49,4.49,0,0,1-2.28-3.14,4.48,4.48,0,0,1-3.8-.79c-.87-.66-1.72-1.36-2.54-2.08A4.49,4.49,0,0,1,69.46,375a4.46,4.46,0,0,1-3.52-1.57c-.69-.8-1.37-1.65-2-2.52a4.49,4.49,0,0,1-.8-3.75A4.46,4.46,0,0,1,60,365c-.53-.91-1-1.85-1.54-2.8a4.46,4.46,0,0,1-.18-3.77,4.48,4.48,0,0,1-2.75-2.59c-.4-1-.77-2-1.13-2.93a4.52,4.52,0,0,1,.31-3.73,4.49,4.49,0,0,1-2.4-2.86c-.28-1-.54-2-.79-3a4.48,4.48,0,0,1,.69-3.65,4.47,4.47,0,0,1-2.1-3.06c-.19-1-.35-2-.51-3.05a4.53,4.53,0,0,1,1-3.56,4.47,4.47,0,0,1-1.84-3.19c-.1-1.05-.19-2.08-.27-3.08a4.52,4.52,0,0,1,1.25-3.47,4.48,4.48,0,0,1-1.61-3.31c0-1.09-.05-2.13-.05-3.09a4.49,4.49,0,0,1,4.47-4.53h0a4.51,4.51,0,0,1,4.5,4.47c0,.9,0,1.87.05,2.89a4.51,4.51,0,0,1-1.26,3.25,4.48,4.48,0,0,1,1.59,3.1c.07.93.16,1.89.26,2.87a4.54,4.54,0,0,1-1,3.33,4.48,4.48,0,0,1,1.81,3c.14.93.3,1.88.47,2.83a4.44,4.44,0,0,1-.75,3.37,4.53,4.53,0,0,1,2.05,2.79c.22.91.46,1.83.71,2.74a4.51,4.51,0,0,1-.41,3.41,4.49,4.49,0,0,1,2.3,2.53c.32.88.65,1.75,1,2.62a4.49,4.49,0,0,1,0,3.38,4.49,4.49,0,0,1,2.57,2.19c.42.82.87,1.63,1.33,2.41a4.5,4.5,0,0,1,.5,3.3,4.48,4.48,0,0,1,2.84,1.72c.55.73,1.12,1.43,1.69,2.1a4.46,4.46,0,0,1,1.08,3.1,4.48,4.48,0,0,1,3.07,1.11c.67.59,1.36,1.15,2.07,1.69a4.48,4.48,0,0,1,1.69,2.76,4.51,4.51,0,0,1,3.22.42c.77.42,1.57.82,2.38,1.19a4.45,4.45,0,0,1,2.27,2.33,4.48,4.48,0,0,1,3.25-.29c.85.25,1.73.47,2.62.67a4.48,4.48,0,0,1,2.73,1.86,4.48,4.48,0,0,1,3.18-.92c.89.09,1.81.16,2.75.21a4.47,4.47,0,0,1,3,1.41,4.47,4.47,0,0,1,3.07-1.43c.92,0,1.85-.1,2.8-.19a4.51,4.51,0,0,1,3.26,1,4.5,4.5,0,0,1,2.91-1.8c.92-.15,1.85-.32,2.8-.51A4.5,4.5,0,0,1,122.7,389c-1,.2-2.06.38-3.06.55a4.49,4.49,0,0,1-3.6-1,4.5,4.5,0,0,1-3.25,1.85q-1.61.13-3.15.21a4.45,4.45,0,0,1-3.5-1.41A4.48,4.48,0,0,1,102.86,390.7Z" transform="translate(-48.04 -246.76)"/><path class="cls-5" d="M128.3,387.64a4.5,4.5,0,0,1-1.13-8.86l1.39-.37a4.5,4.5,0,0,1,2.38,8.68l-1.5.4A4.52,4.52,0,0,1,128.3,387.64Z" transform="translate(-48.04 -246.76)"/><path class="cls-6" d="M127.11,425.16l-5,12,8.74-.75s18.49,1.5,23.12.75c3.09-.5-9.86-5.65-18.85-9C128,432.36,127.11,425.16,127.11,425.16Z" transform="translate(-48.04 -246.76)"/><path class="cls-6" d="M156.19,426.19c-1.83,1.2-1.21,10.95-1.21,10.95l8.74-.75s18.49,1.5,23.12.75c3.6-.58-11.08-9.11-19.92-12C163.19,429.19,157,427.86,156.19,426.19Z" transform="translate(-48.04 -246.76)"/><path class="cls-3" d="M177.52,342.52H170v-3h7.5a3.82,3.82,0,0,0,2.9-1.4c1.57-1.74,2.3-4.69,2-7.88l-2.86-27.39,3-.31,2.85,27.39c.42,4-.6,7.84-2.72,10.2A6.81,6.81,0,0,1,177.52,342.52Z" transform="translate(-48.04 -246.76)"/><path class="cls-7" d="M174.86,337.14a2.62,2.62,0,0,1-.55-.05,3,3,0,0,1-2.4-3.5l12.29-65.75a3,3,0,1,1,5.89,1.1l-12.28,65.75A3,3,0,0,1,174.86,337.14Z" transform="translate(-48.04 -246.76)"/><path class="cls-8" d="M72.49,271.24c2.17,6.79,2,15.29-.53,21A61.85,61.85,0,0,0,82.19,294a30.42,30.42,0,0,1,.67-13.88C77.42,279.45,76.37,276.25,72.49,271.24Z" transform="translate(-48.04 -246.76)"/><path class="cls-8" d="M89.51,284.87c2.44-1.5,2.65-4.79,3.27-7.31,1.78-7.27,9.66-27-2.09-28.81a15.85,15.85,0,0,0-10.43,1.56c-7.69,4.44-8.42,12-7.93,19.88C73,280.38,87.09,286.36,89.51,284.87Z" transform="translate(-48.04 -246.76)"/><path class="cls-9" d="M88.35,271.94l1.55,3s.61,1.58-.78.74-.8-3.72-.8-3.72" transform="translate(-48.04 -246.76)"/><path class="cls-10" d="M93.67,258.22l-.48.88c-.14.28-.32.62-.51,1s-.39.86-.58,1.37c-.1.25-.2.52-.29.8s-.19.57-.28.87-.18.62-.25.94-.15.65-.21,1-.13.68-.17,1c0,.18-.05.35-.07.53s0,.36,0,.54a9.83,9.83,0,0,0-.05,1.09c0,.36,0,.73,0,1.1s0,.73.08,1.1.1.72.15,1.08.14.71.21,1.05.18.68.27,1a4.22,4.22,0,0,1,.18.93c0,.29,0,.57-.18.65a.78.78,0,0,1-.68-.09,2.92,2.92,0,0,1-.66-.44,5.28,5.28,0,0,1-1-1.07,5.69,5.69,0,0,1-.56-1,4.83,4.83,0,0,1-.24-.69c0-.16-.07-.25-.07-.25s0,.09,0,.26a4.68,4.68,0,0,0,.17.72,5.26,5.26,0,0,0,.48,1.06,5.13,5.13,0,0,0,.93,1.2,3.29,3.29,0,0,0,.71.53,1.59,1.59,0,0,0,.46.19,1,1,0,0,0,1.05-1.11,4.93,4.93,0,0,0-.17-1l-.24-1c-.06-.34-.12-.68-.19-1s-.1-.7-.13-1.05-.07-.71-.07-1.07,0-.71,0-1.06,0-.71,0-1.06l0-.53.06-.52c0-.34.08-.68.14-1s.11-.65.17-1,.13-.63.2-.93.15-.59.23-.87.15-.55.24-.8c.16-.52.32-1,.47-1.4s.29-.77.41-1.07C93.54,258.56,93.67,258.22,93.67,258.22Z" transform="translate(-48.04 -246.76)"/><path class="cls-10" d="M82.5,274.85A10,10,0,0,0,84,276.54a10.41,10.41,0,0,0,1.76,1.35,5.66,5.66,0,0,0,4.12.87l.12.59a5,5,0,0,1-2.38,0,6.46,6.46,0,0,1-2.15-1,9.07,9.07,0,0,1-1.72-1.55A7.75,7.75,0,0,1,82.5,274.85Z" transform="translate(-48.04 -246.76)"/><path class="cls-8" d="M74.67,264.26a2.53,2.53,0,1,1-5,0,2.53,2.53,0,0,1,5,0Z" transform="translate(-48.04 -246.76)"/><path class="cls-9" d="M72.31,262.69s-1.92.37-1.63,1.74" transform="translate(-48.04 -246.76)"/><path class="cls-11" d="M87.2,264.3c-.19.74-.63,1.27-1,1.18s-.49-.76-.31-1.51.64-1.28,1-1.19S87.39,263.55,87.2,264.3Z" transform="translate(-48.04 -246.76)"/><path class="cls-11" d="M93.3,265.66c-.19.74-.63,1.27-1,1.18s-.49-.77-.3-1.51.63-1.28,1-1.19S93.49,264.91,93.3,265.66Z" transform="translate(-48.04 -246.76)"/><path class="cls-12" d="M77,255.71s4.26,2.33,1.63,4.5a11,11,0,0,1-5.59,2.4s-1.39-12,5.59-14.11,8-1.77,18.35-1.62-.29,7.86-.29,7.86S84.71,247.21,77,255.71Z" transform="translate(-48.04 -246.76)"/><path class="cls-13" d="M88.05,352.74l.37,1.16c.15.46.31.94.49,1.41.34.95.74,1.87,1.15,2.75a22.43,22.43,0,0,0,2.61,4.44,7.65,7.65,0,0,0,2,1.95,1.64,1.64,0,0,0,.61.29s.14,0,.21,0,.06,0,.12,0h.42l1.71-.06c4.63-.25,9.65-.91,14.78-1.58s10.41-1.48,15.94-2.08c2.78-.3,5.62-.56,8.71-.61a38.73,38.73,0,0,1,4.93.22,19.6,19.6,0,0,1,6,1.55,13.15,13.15,0,0,1,3.51,2.32,10.93,10.93,0,0,1,1.63,1.87,9.6,9.6,0,0,1,.56.9l.24.42.17.34a32.48,32.48,0,0,1,1.78,4.58c.89,2.76,1.56,5.39,2.27,8,2.68,10.43,5,20.7,7.75,30.92l-13.53,2.92q-1.25-7.72-3-15.33c-1.15-5.07-2.42-10.1-3.88-15-.71-2.43-1.52-4.84-2.37-7a20,20,0,0,0-1.22-2.68l-.05-.1h0s0-.08,0,.08a5,5,0,0,0,.31.4c.17.18.27.24.2.23a11.82,11.82,0,0,0-1.63-.18,22.5,22.5,0,0,0-2.93.16,56.68,56.68,0,0,0-6.92,1.27c-4.81,1.14-9.79,2.65-14.92,4.09a135.85,135.85,0,0,1-16.24,3.73c-.73.12-1.47.22-2.22.32l-.56.07-.85.05c-.59,0-1.16.07-1.76,0a21.62,21.62,0,0,1-7.06-1.31,23.57,23.57,0,0,1-6-3.23A28.21,28.21,0,0,1,77,376a39.91,39.91,0,0,1-5.82-8.81c-.73-1.48-1.36-3-1.93-4.49-.29-.76-.56-1.52-.81-2.3L68,359.19l-.17-.64-.21-.79Z" transform="translate(-48.04 -246.76)"/><path class="cls-12" d="M73.08,262.61s3.4,15.54,10.61,18.65a5.46,5.46,0,0,0,4.12,0s-.56.95,1.3,1.56,2.82-1.56,2.82-1.56-1.24,10.93-9.07,5.77S69.62,280.19,73.08,262.61Z" transform="translate(-48.04 -246.76)"/><path class="cls-12" d="M91.14,282.34" transform="translate(-48.04 -246.76)"/><path class="cls-14" d="M83.91,294.41c-2.37-2.25-9.68-.6-12-2.84-10.89,24.89-4.71,74-3.7,75.59,9.65-2,16.75-6.22,25.07-7.22C86,342.74,95,309.19,83.91,294.41Z" transform="translate(-48.04 -246.76)"/><path class="cls-15" d="M68.21,370.66a3.51,3.51,0,0,1-3-1.66c-1.88-3.06-7.58-53.55,3.47-78.83A3.5,3.5,0,0,1,74.26,289a15.5,15.5,0,0,0,3.83.51c3,.18,6.12.37,8.23,2.38a3.31,3.31,0,0,1,.4.44c6.77,9.08,6.77,23.65,6.77,37.75,0,10.54,0,21.44,3,28.5a3.5,3.5,0,0,1-2.81,4.85c-4.07.49-8,1.9-12.15,3.38a89.48,89.48,0,0,1-12.63,3.8A3.33,3.33,0,0,1,68.21,370.66Zm3.25-4.76Zm2.42-69.8c-7.39,20.94-4.59,56-3,66.82,2.91-.8,5.63-1.77,8.28-2.72a88.58,88.58,0,0,1,9.47-3c-2.17-7.86-2.16-17.64-2.16-27.15,0-12.7,0-25.81-5.07-33.12a18.27,18.27,0,0,0-3.75-.46A33.78,33.78,0,0,1,73.88,296.1Zm7.71.92Z" transform="translate(-48.04 -246.76)"/><path class="cls-16" d="M82.54,315.06C80,312,77.78,308.21,75,305.43c-2.22-2.21-8-3.93-9.13.55A12.6,12.6,0,0,0,66,312.2c2,8.15,5.17,17.43,9.9,24.32,3.71,5.42,8.54,9.76,14.87,11.82,1.15.38,2.31.71,3.47,1a159.66,159.66,0,0,1-.75-19.3v-2.52A158.45,158.45,0,0,1,82.54,315.06Z" transform="translate(-48.04 -246.76)"/><path class="cls-17" d="M149.8,341.45c-.19-2.45-2.63-4.4-5.64-4.4s-5.45,1.95-5.65,4.4Z" transform="translate(-48.04 -246.76)"/><path class="cls-2" d="M146.28,337.66l0,0a19.12,19.12,0,0,0-4.63-1.72c1-.05,6,.91,6.56.06.85-1.24-5.64-2.66-6.35-2.73,1.64-.58,3.46.4,5.09.1,1.84-.33-2.22-2.42-2.69-2.51-4-.78-9,4-12.27,6.24a40.09,40.09,0,0,1,.05,4.1h.09c2.49-.35,3.55.18,5.46-1.85,1.56-1.67,4-1.06,6-.3C145,339.6,149.25,339.37,146.28,337.66Z" transform="translate(-48.04 -246.76)"/><path class="cls-2" d="M80.81,298.35A69,69,0,0,0,87,315.91a52.14,52.14,0,0,0,10.83,14.6c.57.48,1.14.95,1.69,1.45a12,12,0,0,0,1.36,1,15.49,15.49,0,0,0,3.43,1.52,41.49,41.49,0,0,0,9,1.56c6.56.56,13.73.46,20.91,1.63a1.5,1.5,0,0,1,1.24,1.72,1.48,1.48,0,0,1-1,1.17h0c-3.38,1.17-6.74,2.19-10.18,3.13a83.41,83.41,0,0,1-10.68,2.21,39.15,39.15,0,0,1-11.88-.06,24.23,24.23,0,0,1-9.53-3.76l-2.45-1.77A53.58,53.58,0,0,1,74.89,322a55.5,55.5,0,0,1-6-22.35,6,6,0,0,1,11.9-1.49Z" transform="translate(-48.04 -246.76)"/><path class="cls-18" d="M128.06,336.93l-1.83-.14c-1.63-.13-3.44-.21-5.39-.32s-4-.19-6.18-.35a63.29,63.29,0,0,1-6.45-.72,24.88,24.88,0,0,1-5.81-1.64c-.42-.19-.82-.39-1.21-.6l-.55-.33c-.17-.11-.25-.19-.38-.27l-.31-.23-.39-.29-.2-.15s.29.2.14.09h0l0,0-.07-.07-.32-.27-1.27-1.08a49.47,49.47,0,0,1-4.58-4.91,53.82,53.82,0,0,1-3.83-5.41c-1.15-1.83-2.13-3.7-3-5.48a56.36,56.36,0,0,1-2.24-5.18c-.64-1.63-1.15-3.15-1.56-4.51-.19-.69-.4-1.32-.58-1.91s-.27-1.07-.39-1.53c-.07-.23-.13-.45-.19-.66s-.1-.48-.15-.69c-.09-.44-.17-.81-.23-1.11-.14-.6-.21-.93-.21-.93a6,6,0,0,0-11.89,1.65s0,.33,0,.94c0,.31,0,.69.08,1.14,0,.22,0,.46,0,.72s.07.61.12.94c.09.67.2,1.4.31,2.2s.29,1.58.47,2.45c.4,1.73.88,3.67,1.56,5.74a69.5,69.5,0,0,0,2.6,6.56A58.48,58.48,0,0,0,78,327.44a54.57,54.57,0,0,0,5.17,6.78,52.37,52.37,0,0,0,6.51,6.08l1.84,1.34L92,342l.39.28.21.12.42.26.52.3c.43.24.9.52,1.31.71l1.19.55c.79.34,1.59.63,2.38.88a31,31,0,0,0,9,1.25,49.43,49.43,0,0,0,7.72-.65c2.36-.37,4.52-.83,6.48-1.31s3.73-1,5.28-1.43l1.4-.41C128.24,340.65,128.17,338.79,128.06,336.93Z" transform="translate(-48.04 -246.76)"/><path class="cls-18" d="M107.41,349.81a34.3,34.3,0,0,1-10-1.4c-.93-.29-1.84-.62-2.74-1l-.11-.05-1.19-.55c-.44-.21-.88-.45-1.3-.69l-1.51-.89-.19-.13-2.74-2-.11-.08a55,55,0,0,1-6.95-6.5A56.35,56.35,0,0,1,75,329.29a61.76,61.76,0,0,1-4-7.23l0-.1a73,73,0,0,1-2.72-6.89c-.78-2.36-1.29-4.48-1.65-6.07-.15-.68-.26-1.3-.37-1.89l-.13-.67a.88.88,0,0,1,0-.16l-.44-3.19,0-.2L65.41,300a9.52,9.52,0,0,1,18.79-2.61l1.3,5.28c.14.45.28.91.41,1.4.41,1.34.9,2.76,1.45,4.15s1.23,3.06,2.13,4.93c.77,1.53,1.73,3.38,2.84,5.13a51.34,51.34,0,0,0,3.61,5.11,47,47,0,0,0,4.19,4.49l1.62,1.39.06.05.38.28.35.25.4.25c.28.15.58.29.88.43a20.84,20.84,0,0,0,5,1.38,58.16,58.16,0,0,0,6.11.69c1.76.13,3.47.22,5.12.3l2.33.12c1.48.07,2.88.15,4.16.25l1.83.14a3.49,3.49,0,0,1,3.21,3.28c.11,1.81.18,3.68.23,5.71a3.52,3.52,0,0,1-2.51,3.44l-1.39.41c-1.5.45-3.29.93-5.44,1.47-2.35.57-4.56,1-6.77,1.37A52.83,52.83,0,0,1,107.41,349.81ZM97.4,341c.69.28,1.37.53,2,.74a27.35,27.35,0,0,0,8,1.09,47.32,47.32,0,0,0,7.17-.6c2-.32,4-.74,6.19-1.26,1.15-.29,2.18-.55,3.12-.81L122,340l-2.31-.12c-1.7-.08-3.46-.17-5.29-.31a62.69,62.69,0,0,1-6.77-.77A27.85,27.85,0,0,1,101,337c-.51-.23-1-.48-1.48-.73l-.12-.08-.55-.33a4,4,0,0,1-.5-.35,4.81,4.81,0,0,1-.49-.34l-.58-.44a3.39,3.39,0,0,1-.48-.44l-1.26-1.07-.15-.13a52,52,0,0,1-4.9-5.27A56,56,0,0,1,86.38,322c-1.24-2-2.3-4-3.17-5.72a60.16,60.16,0,0,1-2.4-5.55c-.58-1.48-1.14-3.09-1.63-4.7-.13-.5-.25-.88-.37-1.25l-.2-.67s0-.08,0-.13L78,301.91l-.07-.26L77.38,299a2.55,2.55,0,0,0-2.6-2,2.52,2.52,0,0,0-2.38,2.65l.27,3.47.41,2.71c.1.52.2,1.08.32,1.65.32,1.4.78,3.31,1.47,5.39.61,1.84,1.41,3.86,2.44,6.17a55.66,55.66,0,0,0,3.59,6.45,52,52,0,0,0,4.88,6.41,47.79,47.79,0,0,0,6,5.6l3,2.11.67.39c.3.17.6.34.86.47Z" transform="translate(-48.04 -246.76)"/><path class="cls-19" d="M189.73,437.39h-90a9,9,0,0,1-9-9V354.54a9,9,0,0,1,9-9h90a9,9,0,0,1,9,9v73.85A9,9,0,0,1,189.73,437.39Zm-90-89.85a7,7,0,0,0-7,7v73.85a7,7,0,0,0,7,7h90a7,7,0,0,0,7-7V354.54a7,7,0,0,0-7-7Z" transform="translate(-48.04 -246.76)"/><rect class="cls-20" x="39.77" y="94.26" width="113.83" height="11.04"/><path class="cls-21" d="M250.88,360.09c-4.41,2.7-8.63,5.4-12.69,8.28a110,110,0,0,0-11.5,9.22,69.79,69.79,0,0,0-9.63,10.9A65.85,65.85,0,0,0,210,401.64a32.71,32.71,0,0,1,3.71-15.16,44.61,44.61,0,0,1,9.6-12.55A56.4,56.4,0,0,1,236.17,365,49.08,49.08,0,0,1,250.88,360.09Z" transform="translate(-48.04 -246.76)"/><path class="cls-21" d="M221.45,337.36A66.41,66.41,0,0,0,218.7,345c-.42,1.27-.72,2.59-1.11,3.87l-1,3.88c-1.26,5.19-2.17,10.44-3,15.71s-1.39,10.6-2,16c-.28,2.68-.51,5.37-.88,8.08s-.52,5.42-1,8.17c-.64-2.69-1-5.42-1.46-8.15s-.5-5.5-.6-8.26a93.71,93.71,0,0,1,1-16.55,76.42,76.42,0,0,1,4.19-16.13c.54-1.29,1.07-2.58,1.66-3.85s1.21-2.51,1.95-3.71A30.49,30.49,0,0,1,221.45,337.36Z" transform="translate(-48.04 -246.76)"/><path class="cls-21" d="M182,355.64a19,19,0,0,1,3.77,0c.63.07,1.27.14,1.89.27l1.86.46a12.67,12.67,0,0,1,1.83.61l1.8.71,1.72.91a13,13,0,0,1,1.68,1A31.61,31.61,0,0,1,207,371.06a37.77,37.77,0,0,1,4.33,14.73,41.45,41.45,0,0,1-1.62,14.91c-.68-5-1.17-9.72-2.26-14.31a53.65,53.65,0,0,0-4.84-12.93,39.16,39.16,0,0,0-8.39-10.7c-.83-.8-1.79-1.44-2.68-2.2l-1.45-1a11.64,11.64,0,0,0-1.49-.94l-1.54-.89c-.52-.28-1.08-.48-1.62-.76a12.31,12.31,0,0,0-1.67-.71C183.19,356.08,182.61,355.88,182,355.64Z" transform="translate(-48.04 -246.76)"/><path class="cls-21" d="M173.48,387.46a12.31,12.31,0,0,1,3.78-5.21,17.77,17.77,0,0,1,5.87-3.13,20.21,20.21,0,0,1,13.37.5,20.49,20.49,0,0,1,10.13,8.72,23.12,23.12,0,0,1,3.07,12.36c-1-1.87-1.86-3.7-2.92-5.39a35.61,35.61,0,0,0-3.36-4.71,22.62,22.62,0,0,0-8.75-6.33A21.88,21.88,0,0,0,184,382.94,19.2,19.2,0,0,0,173.48,387.46Z" transform="translate(-48.04 -246.76)"/><path class="cls-21" d="M182.19,371.69a14.94,14.94,0,0,1,5.67-1.68,16,16,0,0,1,3.09,0c.52.06,1,.19,1.54.29a7.79,7.79,0,0,1,1.52.43,19.89,19.89,0,0,1,9.66,7.63,33.42,33.42,0,0,1,4.82,10.81,37.83,37.83,0,0,1,1.21,11.5c-1.87-3.43-3.24-6.89-4.9-10.16a70.26,70.26,0,0,0-5.21-9.28,23.55,23.55,0,0,0-7.15-6.92C189.59,372.59,186.08,371.93,182.19,371.69Z" transform="translate(-48.04 -246.76)"/><path class="cls-21" d="M184.66,399.74a10.32,10.32,0,0,1,4-8,13.94,13.94,0,0,1,17.77.62,9.8,9.8,0,0,1,3.27,8.33,14.76,14.76,0,0,0-5.6-5.16,16,16,0,0,0-6.63-1.69,15.62,15.62,0,0,0-6.72,1.21A16.76,16.76,0,0,0,184.66,399.74Z" transform="translate(-48.04 -246.76)"/><path class="cls-21" d="M240.06,384.36A81.42,81.42,0,0,0,231,385.9a30.39,30.39,0,0,0-7.9,3.07,35.73,35.73,0,0,0-6.86,5.07c-2.17,2-4.17,4.31-6.49,6.66a22.42,22.42,0,0,1,3.47-9.19,21.69,21.69,0,0,1,7.45-6.91,20.32,20.32,0,0,1,9.87-2.59A19.55,19.55,0,0,1,240.06,384.36Z" transform="translate(-48.04 -246.76)"/><path class="cls-21" d="M232.92,347.24a134.29,134.29,0,0,0-8.2,12.62,109.93,109.93,0,0,0-6.53,13.19,107.38,107.38,0,0,0-4.79,13.89c-.75,2.37-1.2,4.8-1.82,7.24-.37,1.21-.5,2.46-.77,3.7s-.5,2.49-.83,3.76c-.23-1.27-.4-2.54-.55-3.83a31.19,31.19,0,0,1-.29-3.86,49.29,49.29,0,0,1,.4-7.77,55.31,55.31,0,0,1,4-15.07,56.38,56.38,0,0,1,7.9-13.45A43,43,0,0,1,232.92,347.24Z" transform="translate(-48.04 -246.76)"/><path class="cls-20" d="M197.29,399.73a7.25,7.25,0,0,0-.35,3.53l3.73,26a9.54,9.54,0,0,0,9.14,7.92h1.13a9.54,9.54,0,0,0,9.14-7.92l3.72-26a7.25,7.25,0,0,0-.34-3.53Z" transform="translate(-48.04 -246.76)"/></g></g></svg>