<svg width="113" height="84" viewBox="0 0 113 84" fill="none" xmlns="http://www.w3.org/2000/svg">
<g clip-path="url(#clip0_22_436)">
<path d="M111.097 23.0754C103.756 15.7342 95.1977 10.0491 85.6589 6.17807C76.448 2.43955 66.7194 0.544067 56.7406 0.544067C46.7612 0.544067 37.0331 2.43955 27.8223 6.17807C18.2852 10.0489 9.72629 15.7342 2.38572 23.0754C-0.0699986 25.5313 -0.0699986 29.5128 2.38572 31.9686C4.84143 34.4245 8.8232 34.4242 11.2787 31.9686C36.3467 6.90064 77.1348 6.90064 102.203 31.9686C103.431 33.1964 105.04 33.8103 106.649 33.8103C108.259 33.8103 109.868 33.1964 111.096 31.9686C113.552 29.5128 113.552 25.5312 111.096 23.0754H111.097Z" fill="#EEEEEE"/>
<path d="M56.7269 23.4354C42.169 23.4354 28.4754 29.1116 18.1674 39.4182C15.8458 41.7401 15.8458 45.5041 18.1674 47.8259C20.4891 50.1476 24.2533 50.1476 26.575 47.8259C43.2003 31.2005 70.2515 31.2005 86.875 47.8259C88.0357 48.9867 89.5573 49.5671 91.0787 49.5671C92.6002 49.5671 94.1218 48.9868 95.2825 47.8259C97.6042 45.5041 97.6042 41.7401 95.2825 39.4182C84.9755 29.1116 71.2808 23.4354 56.7231 23.4354H56.7269Z" fill="#EEEEEE"/>
<path d="M56.7269 44.8931C47.8757 44.8931 39.5497 48.3438 33.284 54.6096C30.9744 56.9195 30.9744 60.664 33.284 62.9738C35.5935 65.2833 39.3382 65.2833 41.648 62.9738C49.9623 54.6595 63.4914 54.6595 71.8057 62.9738C72.9605 64.1286 74.474 64.7059 75.9877 64.7059C77.5013 64.7059 79.015 64.1286 80.1697 62.9738C82.4794 60.664 82.4794 56.9195 80.1697 54.6096C73.9038 48.3438 65.5784 44.8931 56.7269 44.8931Z" fill="#EEEEEE"/>
<path d="M56.6446 83.3206C60.6647 83.3206 63.9236 80.0617 63.9236 76.0416C63.9236 72.0215 60.6647 68.7626 56.6446 68.7626C52.6245 68.7626 49.3656 72.0215 49.3656 76.0416C49.3656 80.0617 52.6245 83.3206 56.6446 83.3206Z" fill="#EEEEEE"/>
</g>
<defs>
<clipPath id="clip0_22_436">
<rect width="113" height="84" fill="white"/>
</clipPath>
</defs>
</svg>
